<?xml version="1.0" encoding="UTF-8"?>
<!-- Generator: Adobe Illustrator 27.9.0, SVG Export Plug-In . SVG Version: 6.00 Build 0)  -->
<svg xmlns="http://www.w3.org/2000/svg" xmlns:xlink="http://www.w3.org/1999/xlink" version="1.1" id="Layer_1" x="0px" y="0px" viewBox="0 0 2037.4 322.2" style="enable-background:new 0 0 2037.4 322.2;" xml:space="preserve">
<style type="text/css">
	.st0{fill:#FFFFFF;}
</style>
<g>
	<g>
		<g>
			<g>
				<g>
					<path class="st0" d="M274.1,0v317.7H170.8L58.5,25.2v292.5H0V0h58.3c32.5,0,61.6,20,73.2,50.3l84.1,219V0H274.1z"></path>
					<path class="st0" d="M527.7,218.8H366.2c2.7,35.4,28.6,56.3,61.3,56.3c25.4,0,46.3-12.3,59.9-31.3l36.3,26.8       c-19.5,30.9-53.6,51.7-97.1,51.7c-64.9,0-116.2-46.3-116.2-118c0-71.3,47.7-122.1,113.5-122.1       C496.4,82.1,540.4,148,527.7,218.8z M368,179.3h106.7c-2.3-31.3-23.1-51.7-51.7-51.7C392.9,127.5,370.7,148,368,179.3z"></path>
					<path class="st0" d="M885.1,89l-59.8,228.7h-71.8l-40.5-162l-40.3,162h-72.6L540.8,89h57.6l41.4,180.4l0,0L683.3,89h58.1       l48.4,180.4l0,0L827.9,89H885.1z"></path>
					<path class="st0" d="M1073.8,202.9c0-68.5,50.4-120.7,118-120.7c66.7,0,117.1,50.8,117.1,119.4s-50.4,120.7-118,120.7       C1124.2,322.2,1073.8,271.9,1073.8,202.9z M1250.8,202.9c0-42.2-25-70.8-59.9-70.8c-35.4,0-59,28.6-59,69.9       c0,42.2,25,70.3,60.4,70.3C1227.2,272.3,1250.8,244.2,1250.8,202.9z"></path>
					<path class="st0" d="M1552.9,172.5v145.2h-58.1V180.2c0-29.5-16.3-48.1-43.1-48.1c-28.6,0-54.9,21.8-54.9,72.2v113.5h-58.1V89       h58.1v32.2c15.9-25.9,40.4-39,71.3-39C1517.9,82.1,1552.9,117.1,1552.9,172.5z"></path>
					<g>
						<path class="st0" d="M1062.6,139.1V89.6H960.2h0c23.5,0,42.5-19,42.5-42.5V20.4h-58.1v69.2h-45.7v49.5h45.7v124.1        c0,30.1,24.4,54.5,54.5,54.5h56.8l0.1-48.6c0,0-20.6,0-33.7,0c-10.8,0-19.6-8.8-19.6-19.6l0-110.4H1062.6z"></path>
					</g>
				</g>
			</g>
		</g>
		<g>
			<g>
				<path class="st0" d="M1658.9,0.4H1577l144.8,158.4L1577,317.3h81.9l47.2-52.1c20.2-22.2,31.3-51.2,31.3-81.2v-50.3      c0-30-11.2-59-31.3-81.2L1658.9,0.4z"></path>
			</g>
			<g>
				<path class="st0" d="M1838.1,317.3h81.9l-144.8-158.4L1920,0.4h-81.9l-47.2,52.1c-20.2,22.2-31.3,51.2-31.3,81.2V184      c0,30,11.2,59,31.3,81.2L1838.1,317.3z"></path>
			</g>
		</g>
	</g>
	<g>
		<path class="st0" d="M2012.8,6.6c7.6,4.4,13.6,10.4,18,18c4.4,7.6,6.6,16.1,6.6,25.6c0,9.4-2.2,17.9-6.6,25.6    c-4.4,7.6-10.4,13.6-18,17.9c-7.6,4.3-16.1,6.4-25.3,6.4c-9.2,0-17.7-2.1-25.3-6.4c-7.6-4.3-13.6-10.3-17.9-17.9    c-4.3-7.6-6.4-16.1-6.4-25.6c0-9.4,2.1-17.9,6.4-25.6c4.3-7.6,10.3-13.6,17.9-18c7.6-4.4,16.1-6.6,25.3-6.6    C1996.8,0,2005.2,2.2,2012.8,6.6z M2007.4,84.8c5.9-3.5,10.6-8.3,14-14.4c3.4-6.1,5.1-12.9,5.1-20.6c0-7.5-1.7-14.2-5.1-20.3    c-3.4-6.1-8.1-10.9-14-14.4c-5.9-3.5-12.5-5.2-19.8-5.2c-7.3,0-13.9,1.7-19.8,5.2c-5.9,3.5-10.5,8.3-13.9,14.4    c-3.3,6.1-5,12.9-5,20.3c0,7.6,1.7,14.5,5,20.6c3.3,6.1,7.9,10.9,13.9,14.4c5.9,3.5,12.5,5.2,19.8,5.2    C1994.8,90,2001.4,88.3,2007.4,84.8z M2007.5,61.6l2.7,14.1h-12.4L1996,65c-0.5-3.4-1.4-5.8-2.7-7.2c-1.3-1.4-3.6-2.1-6.8-2.1    h-5.8v20h-12.4V23.8h22.9c5.7,0,10.1,1.3,13.4,3.9c3.2,2.6,4.9,6.2,4.9,11c0,6.7-2.8,11.1-8.3,13.4    C2004.6,54.2,2006.7,57.4,2007.5,61.6z M1980.7,46.5h8.8c4.9,0,7.3-2.2,7.3-6.6c0-4.5-2.4-6.8-7.3-6.8h-8.8V46.5z"></path>
	</g>
</g>
</svg>
